# xmcd
#
# Track frame offsets: 
#        150
#        14275
#        29532
#        45410
#        62069
#        76750
#        97238
#        112609
#        129132
#        147099
#
# Disc length: 2275 seconds
#
# Revision: 1
# Processed by: cddbd v1.5.2PL0 Copyright (c) Steve Scherf et al.
# Submitted via: ExactAudioCopy v0.95b3
#
DISCID=7208e10a
DTITLE=Sheryl Crow - Home For Christmas
DYEAR=2008
DGENRE=Christmas
TTITLE0=Go Tell It On The Mountain
TTITLE1=The Christmas Song (Chestnuts Roasting On An Open Fire)
TTITLE2=White Christmas
TTITLE3=I'll Be Home For Christmas
TTITLE4=Merry Christmas, Baby
TTITLE5=The Bells Of St Mary's
TTITLE6=Blue Christmas
TTITLE7=O Holy Night
TTITLE8=There Is A Star That Shines Tonight
TTITLE9=All Through The Night
EXTD=
EXTT0=
EXTT1=
EXTT2=
EXTT3=
EXTT4=
EXTT5=
EXTT6=
EXTT7=
EXTT8=
EXTT9=
PLAYORDER=
